<?xml version="1.0" encoding="iso-8859-1"?>
<!-- Generator: Adobe Illustrator 19.0.0, SVG Export Plug-In . SVG Version: 6.00 Build 0)  -->
<svg version="1.1" id="Layer_1" xmlns="http://www.w3.org/2000/svg" xmlns:xlink="http://www.w3.org/1999/xlink" x="0px" y="0px"
	 viewBox="0 0 512 512" style="enable-background:new 0 0 512 512;" xml:space="preserve">
<path style="fill:#43D3E8;" d="M286.044,356.393l25.477-9.705c2.01-7.649,5.046-14.879,8.95-21.54l-11.159-24.888l17.034-17.047
	l24.896,11.164c6.643-3.894,13.891-6.925,21.525-8.942l9.7-25.477h19.794V117.706H147.164v261.082h138.88V356.393z"/>
<g>
	<path style="fill:#242D3C;" d="M412.746,485.893h-36.467l-10.314-27.087c-5.228-1.656-10.296-3.758-15.137-6.275l-26.447,11.843
		l-25.792-25.769l11.855-26.47c-2.532-4.849-4.631-9.91-6.292-15.132l-27.085-10.332v-36.465l27.085-10.317
		c1.654-5.225,3.761-10.296,6.292-15.153l-11.855-26.445l25.792-25.805l26.447,11.863c4.851-2.519,9.91-4.628,15.137-6.282
		l10.314-27.087h36.467l10.33,27.087c5.204,1.654,10.273,3.753,15.14,6.287l26.478-11.868l25.766,25.805l-11.855,26.45
		c2.557,4.895,4.664,9.964,6.31,15.148L512,350.218l-0.018,36.454L484.908,397c-1.638,5.179-3.753,10.245-6.303,15.13l11.855,26.47
		l-25.766,25.774l-26.478-11.845c-4.856,2.524-9.928,4.623-15.132,6.277L412.746,485.893z M388.657,467.927h11.717l9.167-24.008
		l4.454-1.175c6.738-1.779,13.235-4.47,19.287-8.005l3.986-2.314l23.46,10.496l8.279-8.271l-10.514-23.485l2.332-3.991
		c3.574-6.111,6.269-12.585,8.013-19.249l1.17-4.465l24.018-9.165v-11.709l-24.018-9.162l-1.17-4.475
		c-1.743-6.659-4.436-13.143-8.013-19.261l-2.332-3.994l10.514-23.462l-8.279-8.287l-23.46,10.522l-3.996-2.327
		c-6.06-3.548-12.547-6.241-19.287-8.01l-4.462-1.178l-9.149-24.01h-11.717l-9.144,24.01l-4.454,1.172
		c-6.776,1.787-13.258,4.48-19.269,8.003l-3.996,2.345l-23.468-10.527l-8.279,8.287l10.514,23.47l-2.34,3.994
		c-3.535,6.026-6.231,12.508-8.015,19.282l-1.17,4.462l-24.008,9.144v11.712l24,9.155l1.178,4.454
		c1.792,6.771,4.48,13.248,8.008,19.259l2.348,3.991l-10.514,23.488l8.279,8.276l23.468-10.506l3.988,2.337
		c6.003,3.51,12.483,6.203,19.277,7.992l4.454,1.175L388.657,467.927z"/>
	<path style="fill:#242D3C;" d="M394.522,418.967c-27.866,0-50.534-22.669-50.534-50.527c0-27.866,22.669-50.537,50.534-50.537
		c27.85,0,50.511,22.671,50.511,50.537C445.035,396.298,422.372,418.967,394.522,418.967z M394.522,335.864
		c-17.964,0-32.571,14.615-32.571,32.576c0,17.953,14.607,32.561,32.571,32.561c17.948,0,32.548-14.607,32.548-32.561
		C427.069,350.479,412.47,335.864,394.522,335.864z"/>
	<rect y="240.973" style="fill:#242D3C;" width="45.983" height="17.971"/>
	<rect x="45.983" y="302.566" style="fill:#242D3C;" width="49.439" height="17.971"/>
	<rect x="45.983" y="333.363" style="fill:#242D3C;" width="49.439" height="17.971"/>
	<rect x="45.983" y="425.754" style="fill:#242D3C;" width="49.439" height="17.971"/>
	<rect x="45.983" y="456.55" style="fill:#242D3C;" width="49.439" height="17.971"/>
	<rect y="271.77" style="fill:#242D3C;" width="95.411" height="17.971"/>
	<rect y="364.16" style="fill:#242D3C;" width="45.983" height="17.971"/>
	<rect x="45.983" y="179.379" style="fill:#242D3C;" width="49.439" height="17.971"/>
	<rect x="45.983" y="210.176" style="fill:#242D3C;" width="49.439" height="17.971"/>
	<rect y="148.582" style="fill:#242D3C;" width="95.411" height="17.971"/>
	<rect y="394.957" style="fill:#242D3C;" width="95.411" height="17.971"/>
	<rect x="114.765" y="425.754" style="fill:#242D3C;" width="49.444" height="17.971"/>
	<rect x="114.765" y="456.55" style="fill:#242D3C;" width="95.411" height="17.971"/>
	<path style="fill:#242D3C;" d="M436.401,101.54H113.032V26.107h323.366v75.433H436.401z M131,83.574h287.434V44.07H131V83.574z"/>
	<rect x="148.966" y="54.845" style="fill:#242D3C;" width="17.971" height="17.971"/>
	<rect x="184.909" y="54.845" style="fill:#242D3C;" width="17.971" height="17.971"/>
	<rect x="220.826" y="54.845" style="fill:#242D3C;" width="17.971" height="17.971"/>
	<polygon style="fill:#242D3C;" points="264.522,412.923 113.032,412.923 113.032,83.574 436.401,83.574 436.401,244.92 
		418.435,244.92 418.435,101.54 131,101.54 131,394.957 264.522,394.957 	"/>
</g>
<g>
	<path style="fill:#FFFFFF;" d="M274.511,232.456h-17.966v-78.259c0-4.959,4.019-8.983,8.983-8.983h28.867
		c7.022,0,13.622,2.737,18.593,7.703c4.971,4.977,7.708,11.581,7.708,18.604c0,7.02-2.734,13.622-7.698,18.588
		c-4.979,4.974-11.579,7.711-18.604,7.711h-19.886v34.637H274.511z M274.511,179.855h19.886c2.227,0,4.319-0.87,5.901-2.445
		c1.564-1.574,2.437-3.668,2.437-5.891c0-2.227-0.873-4.321-2.445-5.901c-1.574-1.569-3.666-2.437-5.893-2.437h-19.886V179.855z"/>
	<path style="fill:#FFFFFF;" d="M242.184,232.456H224.22V171.52c0-2.227-0.868-4.321-2.445-5.901
		c-1.574-1.569-3.668-2.437-5.891-2.437h-11.548c-2.227,0-4.319,0.863-5.896,2.442c-1.577,1.572-2.442,3.666-2.442,5.896v60.936
		h-17.964V171.52c0-7.025,2.734-13.632,7.703-18.598c4.966-4.966,11.574-7.708,18.598-7.708h11.548
		c7.02,0,13.622,2.737,18.593,7.703c4.972,4.977,7.708,11.581,7.708,18.604v60.936H242.184z"/>
	<rect x="178.022" y="179.866" style="fill:#FFFFFF;" width="64.154" height="17.971"/>
	<rect x="344.192" y="154.189" style="fill:#FFFFFF;" width="17.971" height="69.274"/>
	<rect x="334.95" y="145.213" style="fill:#FFFFFF;" width="36.444" height="17.971"/>
	<rect x="334.95" y="214.502" style="fill:#FFFFFF;" width="36.444" height="17.971"/>
</g>
<g>
</g>
<g>
</g>
<g>
</g>
<g>
</g>
<g>
</g>
<g>
</g>
<g>
</g>
<g>
</g>
<g>
</g>
<g>
</g>
<g>
</g>
<g>
</g>
<g>
</g>
<g>
</g>
<g>
</g>
</svg>
