<?xml version="1.0" encoding="UTF-8"?>
<svg enable-background="new 0 0 511.999 511.999" version="1.1" viewBox="0 0 511.999 511.999" xml:space="preserve" xmlns="http://www.w3.org/2000/svg">
<path d="m412.42 226.28c-1.004 0-1.995 0.024-2.974 0.073-38.483 1.554-69.194 33.244-69.194 72.094 0 33.709 23.121 62.033 54.383 69.952 5.679 1.444 11.64 2.215 17.785 2.215 39.854 0 72.168-32.314 72.168-72.168s-32.315-72.166-72.168-72.166zm0 110.68c-2.142 0-4.247-0.171-6.292-0.514-18.274-2.999-32.216-18.862-32.216-37.993 0-20.27 15.655-36.88 35.533-38.397 0.979-0.073 1.97-0.11 2.974-0.11 21.273 0 38.507 17.234 38.507 38.507 1e-3 21.273-17.233 38.507-38.506 38.507z" fill="#C1C8D2"/>
<path d="m373.91 298.44c0 19.131 13.941 34.995 32.216 37.993-2.509 11.236-6.402 21.959-11.493 31.959-31.261-7.919-54.383-36.243-54.383-69.952 0-38.85 30.71-70.54 69.194-72.094v33.697c-19.879 1.518-35.534 18.128-35.534 38.397z" fill="#E4EAF8"/>
<path d="m390.81 215.75v89.099c0 75.65-60.598 138.17-136.25 138.71-16.036 0.113-31.443-2.526-45.778-7.475-46.525-16.047-81.715-56.403-90.381-105.89-1.359-7.748-2.069-15.716-2.069-23.856v-90.585c0-5.471 4.435-9.907 9.907-9.907h254.66c5.472 0 9.908 4.435 9.908 9.906z" fill="#fff"/>
<g fill="#E4EAF8">
	<path d="m214.4 427.41c-1.579 3.023-3.464 5.924-5.606 8.678-46.525-16.047-81.715-56.403-90.381-105.89 3.391 1.236 6.622 2.864 9.608 4.859 7.344 4.908 13.011 11.885 16.659 20.208 4.468-0.698 8.948-1.065 13.378-1.065 31.102 0 56.256 17.259 61.164 41.959 2.081 10.418 0.404 21.226-4.822 31.25z"/>
	<path d="m390.81 278.05v28.287c0 75.791-61.446 137.22-137.24 137.22s-137.24-61.433-137.24-137.22v-28.287c0 75.791 61.446 137.24 137.24 137.24s137.24-61.445 137.24-137.24z"/>
</g>
<rect x="143.81" y="468.4" width="219.53" height="36.1" fill="#C1C8D2"/>
<path d="m198.12 418.91c-6.451 12.35-21.028 22.693-39.34 26.328-27.357 5.435-52.706-6.12-56.623-25.827-0.037-0.171-0.061-0.331-0.086-0.502-3.513-19.535 15.41-39.621 42.522-45.007 27.357-5.435 52.706 6.12 56.623 25.827 1.298 6.512 0.087 13.085-3.096 19.181z" fill="#FFC843"/>
<g fill="#FFA816">
	<path d="m198.12 418.91c-6.451 12.35-21.028 22.693-39.34 26.328-27.357 5.435-52.706-6.12-56.623-25.827-0.037-0.171-0.061-0.331-0.086-0.502h96.049v1e-3z"/>
	<path d="m158.77 445.24c-27.348 5.436-52.696-6.123-56.612-25.823-0.525-2.641-0.642-5.301-0.365-7.927 8.055 15.034 30.243 23.066 53.918 18.36 23.674-4.706 41.104-20.613 42.797-37.585 1.26 2.32 2.169 4.823 2.694 7.464 3.916 19.699-15.084 40.074-42.432 45.511z"/>
</g>
<path d="m119.99 412.5c-1.518 2.264-3.133 4.406-4.835 6.414-15.68 18.483-38.397 25.435-53.453 15.361-5.41-3.611-9.168-8.972-11.261-15.361-4.345-13.33-1.395-31.139 9.082-46.819 15.496-23.195 41.592-32.938 58.288-21.775 16.696 11.151 17.675 38.997 2.179 62.18z" fill="#FFC843"/>
<g fill="#FFA816">
	<path d="m115.15 418.91c-15.68 18.483-38.397 25.435-53.453 15.361-5.41-3.611-9.168-8.972-11.261-15.361h64.714z"/>
	<path d="m119.99 412.5c-15.494 23.182-41.591 32.932-58.29 21.771-2.239-1.496-4.202-3.295-5.864-5.347 16.327 4.935 37.695-5.075 51.108-25.143s14.489-43.64 3.685-56.838c2.532 0.75 4.944 1.876 7.183 3.373 16.7 11.16 17.672 39.002 2.178 62.184z"/>
</g>
<polygon points="27.415 436.06 27.415 453.99 143.42 476.02 363.74 476.02 479.74 453.99 479.74 436.06" fill="#fff"/>
<g fill="#FFC843">
	<path d="m273.2 149.89c-3.506 2.206-4.56 6.836-2.354 10.342 1.425 2.266 3.862 3.507 6.354 3.507 1.365 0 2.747-0.373 3.987-1.153 15.072-9.483 24.07-25.757 24.07-43.531 0-14.281-5.818-27.584-15.917-37.184 10.1-9.6 15.917-22.903 15.917-37.183 0-17.775-8.998-34.048-24.07-43.532-3.505-2.206-8.138-1.152-10.342 2.354-2.206 3.506-1.152 8.136 2.354 10.342 10.682 6.721 17.059 18.248 17.059 30.835s-6.377 24.114-17.059 30.835c-4.585 2.876-4.585 9.81 0 12.696 10.682 6.721 17.059 18.248 17.059 30.835 1e-3 12.588-6.376 24.116-17.058 30.837-3.506 2.206 10.682-6.721 0 0z"/>
	<path d="m325.98 149.89c-3.506 2.206-4.56 6.836-2.354 10.342 1.425 2.266 3.862 3.507 6.354 3.507 1.365 0 2.747-0.373 3.987-1.153 15.071-9.483 24.069-25.757 24.069-43.531s-8.998-34.048-24.069-43.531c-3.505-2.206-8.137-1.153-10.342 2.354-2.206 3.505-1.152 8.136 2.354 10.342 10.681 6.721 17.058 18.249 17.058 30.836 1e-3 12.585-6.376 24.113-17.057 30.834z"/>
	<path d="m216.09 149.89c-3.506 2.206-4.56 6.836-2.354 10.342 1.425 2.266 3.862 3.507 6.354 3.507 1.365 0 2.747-0.373 3.987-1.153 15.072-9.483 24.07-25.757 24.07-43.531 0-17.775-8.998-34.048-24.07-43.532-3.505-2.206-8.138-1.152-10.342 2.354-2.206 3.506-1.152 8.136 2.354 10.342 10.682 6.721 17.059 18.248 17.059 30.835 1e-3 12.587-6.376 24.115-17.058 30.836z"/>
</g>
<path d="m114.24 236c0-4.125 3.375-7.5 7.5-7.5h264.51c4.125 0 7.5 3.375 7.5 7.5s-3.375 7.5-7.5 7.5h-264.51c-4.125 0-7.5-3.375-7.5-7.5z" fill="#C1C8D2"/>
<path d="m479.74 428.55h-72.42c-4.143 0-7.5 3.358-7.5 7.5s3.357 7.5 7.5 7.5h64.92v4.231l-109.21 20.739h-218.91l-109.21-20.739v-4.231h29.82c0.012 0 0.024 2e-3 0.035 2e-3 9e-3 0 0.019-2e-3 0.028-2e-3h27.022c9e-3 0 0.017 2e-3 0.026 2e-3 0.014 0 0.029-2e-3 0.043-2e-3h89.917c5e-3 0 0.01 1e-3 0.016 1e-3 5e-3 0 9e-3 -1e-3 0.014-1e-3h26.795c8e-3 0 0.016 2e-3 0.024 2e-3s0.017-2e-3 0.025-2e-3h89.79c9e-3 0 0.017 2e-3 0.025 2e-3s0.016-2e-3 0.023-2e-3h80.946c4.143 0 7.5-3.358 7.5-7.5s-3.357-7.5-7.5-7.5h-48.376c8.957-5.692 17.316-12.358 24.831-19.868 10.847-10.852 19.752-23.126 26.558-36.396 9.484 3.863 19.526 5.824 29.937 5.824 43.925 0 79.66-35.74 79.66-79.67 0-43.925-35.735-79.66-79.66-79.66-4.76 0-9.476 0.431-14.11 1.262v-4.291c0-9.6-7.81-17.41-17.409-17.41h-35.471c-4.143 0-7.5 3.358-7.5 7.5s3.357 7.5 7.5 7.5h35.471c1.328 0 2.409 1.081 2.409 2.41v90.58c0 34.654-13.493 67.237-37.991 91.745-13.573 13.564-30.197 24.076-48.133 30.475h-87.201c-2.419-0.861-4.826-1.787-7.203-2.8 5.503-8.652 7.6-18.278 5.789-27.452-2e-3 -0.012-3e-3 -0.023-5e-3 -0.035-3e-3 -0.014-8e-3 -0.028-0.01-0.042-2.391-11.935-10.824-21.755-23.752-27.653-12.11-5.525-26.911-6.955-41.678-4.023-1.343 0.267-2.674 0.572-3.994 0.907-10.011-18.714-15.292-39.718-15.292-61.121v-90.58c0-1.329 1.081-2.41 2.41-2.41h191.32c4.143 0 7.5-3.358 7.5-7.5s-3.357-7.5-7.5-7.5h-191.32c-9.6 0-17.41 7.81-17.41 17.41v90.58c0 11.312 1.323 22.527 3.901 33.42-12.207-3.64-26.753-0.78-40.025 8.301-3.419 2.339-4.295 7.006-1.956 10.425 2.34 3.418 7.008 4.293 10.426 1.955 8.698-5.951 17.826-8.287 25.374-6.775l-27.318 40.871c-2.302 3.444-1.376 8.102 2.067 10.403 1.28 0.856 2.729 1.266 4.161 1.266 2.421 0 4.797-1.17 6.242-3.333l27.326-40.886c2.834 4.207 4.387 9.712 4.46 16.128v8e-3c0 0.014 1e-3 0.028 1e-3 0.042 0.101 9.908-3.361 20.625-9.746 30.177-3.64 5.447-7.944 10.118-12.818 13.902-3.379 2.646-6.929 4.763-10.566 6.314h-23.693c-0.271-0.162-0.541-0.325-0.81-0.507-12.487-8.34-13.277-29.909-1.799-49.104 2.126-3.555 0.968-8.161-2.587-10.287-3.553-2.124-8.16-0.968-10.286 2.588-7.317 12.235-10.891 25.867-10.063 38.386 0.47 7.103 2.329 13.504 5.389 18.923h-19.099c-4.143 0-7.5 3.358-7.5 7.5v17.94c0 3.603 2.562 6.696 6.101 7.368l110.29 20.945v22.196c0 4.142 3.357 7.5 7.5 7.5h219.53c4.143 0 7.5-3.358 7.5-7.5v-22.194l110.3-20.947c3.539-0.672 6.101-3.766 6.101-7.368v-17.94c0-4.141-3.358-7.499-7.5-7.499zm-81.431-122.22v-35.485c4.346-2.231 9.152-3.415 14.11-3.415 17.099 0 31.01 13.911 31.01 31.01s-13.911 31.01-31.01 31.01c-5.449 0-10.694-1.415-15.353-4.083 0.819-6.261 1.243-12.616 1.243-19.037zm-4.091 34.374c5.702 2.462 11.862 3.747 18.201 3.747 25.37 0 46.01-20.64 46.01-46.01s-20.64-46.01-46.01-46.01c-4.84 0-9.588 0.757-14.11 2.214v-18.567c0-0.026 4e-3 -0.051 4e-3 -0.077s-4e-3 -0.051-4e-3 -0.077v-0.589c4.604-1.027 9.329-1.554 14.11-1.554 35.653 0 64.66 29.006 64.66 64.66 0 35.659-29.007 64.67-64.66 64.67-8.269 0-16.24-1.541-23.783-4.538 2.247-5.816 4.107-11.784 5.582-17.869zm-267.99 75.964c6.943-10.388 11.133-22.037 12.069-33.325 2.516-0.848 5.104-1.559 7.755-2.087 19.083-3.788 37.483 1.954 44.82 12.878l-48.2 9.581c-4.063 0.808-6.702 4.755-5.895 8.818 0.71 3.569 3.843 6.039 7.349 6.039 0.484 0 0.977-0.047 1.47-0.146l48.23-9.588c-0.962 4.934-3.712 9.88-8.117 14.424-0.012 0.012-0.023 0.025-0.034 0.037-1.837 1.885-3.914 3.64-6.176 5.249h-63.061c3.595-3.545 6.874-7.516 9.79-11.88zm229.61 80.332h-204.53v-13.48h204.53v13.48z" fill="#434C54"/>
</svg>
