<?xml version="1.0" encoding="iso-8859-1"?>
<!-- Generator: Adobe Illustrator 19.0.0, SVG Export Plug-In . SVG Version: 6.00 Build 0)  -->
<svg version="1.1" id="Layer_1" xmlns="http://www.w3.org/2000/svg" xmlns:xlink="http://www.w3.org/1999/xlink" x="0px" y="0px"
	 viewBox="0 0 512 512" style="enable-background:new 0 0 512 512;" xml:space="preserve">
<path style="fill:#242D3C;" d="M419.543,393.862H63.414V280.549h16.504v96.809h323.121V180.105c0-0.829-0.297-1.541-0.883-2.112
	c-0.653-0.663-1.426-0.993-2.194-0.993H82.99c-0.771,0-1.541,0.33-2.112,0.909c-0.663,0.655-0.96,1.367-0.96,2.196v15.908H63.414
	v-15.908c0-5.261,2.061-10.184,5.798-13.868c3.564-3.617,8.62-5.742,13.778-5.742h316.971c5.161,0,10.214,2.125,13.862,5.827
	c3.656,3.599,5.716,8.522,5.716,13.783v213.757H419.543z"/>
<polygon style="fill:#43D3E8;" points="143.526,196.015 143.526,280.559 98.916,280.559 98.916,385.619 384.059,385.619 
	384.059,196.015 "/>
<g>
	<path id="SVGID_1_" style="fill:#FFFFFF;" d="M309.135,287.274c0,37.384-30.323,67.643-67.668,67.643
		c-37.343,0-67.633-30.259-67.633-67.643c0-37.345,30.29-67.633,67.633-67.633C278.812,219.639,309.135,249.929,309.135,287.274z"/>
</g>
<g>
	<g>
		<path style="fill:#242D3C;" d="M241.475,318.099c-16.986,0-30.802-13.829-30.802-30.833c0-16.97,13.816-30.781,30.802-30.781
			c16.996,0,30.822,13.814,30.822,30.781C272.294,304.268,258.47,318.099,241.475,318.099z M241.475,272.987
			c-7.882,0-14.292,6.405-14.292,14.28c0,7.903,6.413,14.331,14.292,14.331c7.895,0,14.316-6.428,14.316-14.331
			C255.79,279.392,249.37,272.987,241.475,272.987z"/>
		<path style="fill:#242D3C;" d="M285.084,356.845H268.58c0-14.953-12.16-27.121-27.105-27.121
			c-14.935,0-27.087,12.168-27.087,27.121h-16.504c0-24.054,19.556-43.622,43.589-43.622
			C265.521,313.222,285.084,332.791,285.084,356.845z"/>
	</g>
</g>
<g>
	<path style="fill:#242D3C;" d="M430.669,424.088H52.255c-6.208,0-12.073-2.419-16.507-6.82c-4.434-4.424-6.861-10.294-6.861-16.561
		v-23.342h425.17v23.342c0,6.259-2.44,12.137-6.861,16.545C442.762,421.664,436.897,424.088,430.669,424.088z M45.389,393.868v6.84
		c0,1.851,0.707,3.574,1.994,4.859c1.306,1.293,3.044,2.017,4.872,2.017h378.414c1.833,0,3.569-0.719,4.879-2.025
		c1.29-1.288,1.999-3.011,1.999-4.854v-6.84H45.389V393.868z"/>
	<rect x="473.984" y="231.476" style="fill:#242D3C;" width="16.502" height="16.504"/>
	<path style="fill:#242D3C;" d="M456.069,247.981h-17.92v-16.504h17.92V247.981z M384.392,247.981h-17.917v-16.504h17.917V247.981z"
		/>
	<rect x="332.058" y="231.476" style="fill:#242D3C;" width="16.504" height="16.504"/>
	<path style="fill:#242D3C;" d="M348.554,213.556H332.05v-17.92h16.504V213.556z M348.554,141.884H332.05v-17.917h16.504V141.884z"
		/>
	<rect x="332.058" y="89.545" style="fill:#242D3C;" width="16.504" height="16.504"/>
	<path style="fill:#242D3C;" d="M456.069,106.049h-17.92V89.545h17.92V106.049z M420.232,106.049h-17.92V89.545h17.92V106.049z
		 M384.392,106.049h-17.917V89.545h17.917V106.049z"/>
	<rect x="473.984" y="89.545" style="fill:#242D3C;" width="16.502" height="16.504"/>
	<path style="fill:#242D3C;" d="M490.493,213.556h-16.502v-17.915h16.502V213.556z M490.493,177.719h-16.502v-17.912h16.502V177.719
		z M490.493,141.887h-16.502v-17.92h16.502V141.887z"/>
	<rect x="120.627" y="87.912" style="fill:#242D3C;" width="67.072" height="16.507"/>
	<rect x="150.246" y="112.091" style="fill:#242D3C;" width="122.65" height="16.504"/>
	<rect x="33.613" y="242.1" style="fill:#242D3C;" width="40.742" height="16.502"/>
	<rect x="33.613" y="217.96" style="fill:#242D3C;" width="84.531" height="16.502"/>
	<path style="fill:#242D3C;" d="M151.777,288.81H0V187.764h151.777V288.81z M16.504,272.308h118.771v-68.04H16.504V272.308z"/>
	
		<rect x="477.787" y="330.426" transform="matrix(-0.707 -0.7072 0.7072 -0.707 601.6651 926.6281)" style="fill:#242D3C;" width="29.99" height="16.509"/>
	<path style="fill:#242D3C;" d="M463.995,357.956l-27.328-75.361L512,309.897L463.995,357.956z M464.202,310.13l6.456,17.795
		l11.338-11.348L464.202,310.13z"/>
</g>
<g>
</g>
<g>
</g>
<g>
</g>
<g>
</g>
<g>
</g>
<g>
</g>
<g>
</g>
<g>
</g>
<g>
</g>
<g>
</g>
<g>
</g>
<g>
</g>
<g>
</g>
<g>
</g>
<g>
</g>
</svg>
