<?xml version="1.0" encoding="iso-8859-1"?>
<!-- Generator: Adobe Illustrator 19.0.0, SVG Export Plug-In . SVG Version: 6.00 Build 0)  -->
<svg version="1.1" id="Capa_1" xmlns="http://www.w3.org/2000/svg" xmlns:xlink="http://www.w3.org/1999/xlink" x="0px" y="0px"
	 viewBox="0 0 512 512" style="enable-background:new 0 0 512 512;" xml:space="preserve">
<path style="fill:#FFE17D;" d="M247.984,504.5H15.516c-4.427,0-8.016-3.589-8.016-8.016V264.016c0-4.427,3.589-8.016,8.016-8.016
	H256v240.484C256,500.911,252.411,504.5,247.984,504.5z"/>
<path style="fill:#FFD164;" d="M143.774,480.452c-61.981,0-112.226-50.245-112.226-112.226V256H15.516
	c-4.427,0-8.016,3.589-8.016,8.016v232.468c0,4.427,3.589,8.016,8.016,8.016h232.468c4.427,0,8.016-3.589,8.016-8.016v-16.032
	H143.774z"/>
<rect x="111.71" y="256" style="fill:#FF8087;" width="40.08" height="80.16"/>
<path style="fill:#FFE17D;" d="M496.484,504.5H264.016c-4.427,0-8.016-3.589-8.016-8.016V256h240.484
	c4.427,0,8.016,3.589,8.016,8.016v232.468C504.5,500.911,500.911,504.5,496.484,504.5z"/>
<path style="fill:#FFD164;" d="M392.274,480.452c-61.981,0-112.226-50.245-112.226-112.226V256H256v240.484
	c0,4.427,3.589,8.016,8.016,8.016h232.468c4.427,0,8.016-3.589,8.016-8.016v-16.032H392.274z"/>
<rect x="360.21" y="256" style="fill:#FF8087;" width="40.08" height="80.16"/>
<path style="fill:#FFE17D;" d="M372.234,256H139.766c-4.427,0-8.016-3.589-8.016-8.016V15.516c0-4.427,3.589-8.016,8.016-8.016
	h232.468c4.427,0,8.016,3.589,8.016,8.016v232.468C380.25,252.411,376.661,256,372.234,256z"/>
<path style="fill:#FFD164;" d="M268.024,231.952c-61.981,0-112.226-50.245-112.226-112.226V7.5h-16.032
	c-4.427,0-8.016,3.589-8.016,8.016v232.468c0,4.427,3.589,8.016,8.016,8.016h232.468c4.427,0,8.016-3.589,8.016-8.016v-16.032
	H268.024z"/>
<rect x="235.96" y="7.5" style="fill:#FF8087;" width="40.08" height="80.16"/>
<path d="M87.661,448.903h-40.08c-4.142,0-7.5,3.358-7.5,7.5s3.358,7.5,7.5,7.5h40.081c4.142,0,7.5-3.358,7.5-7.5
	S91.803,448.903,87.661,448.903z"/>
<path d="M111.709,416.839H47.581c-4.142,0-7.5,3.358-7.5,7.5s3.358,7.5,7.5,7.5h64.129c4.142,0,7.5-3.358,7.5-7.5
	S115.852,416.839,111.709,416.839z"/>
<path d="M496.484,248.5H387.75V15.516C387.75,6.96,380.79,0,372.234,0H139.766c-8.556,0-15.516,6.96-15.516,15.516V248.5H15.516
	C6.96,248.5,0,255.46,0,264.016v232.468C0,505.04,6.96,512,15.516,512h480.968c8.556,0,15.516-6.96,15.516-15.516V264.016
	C512,255.46,505.04,248.5,496.484,248.5z M367.709,263.5h25.081v65.161h-25.081V263.5z M243.459,15h25.081v65.161h-25.081
	L243.459,15L243.459,15z M119.209,263.5h25.081v65.161h-25.081C119.209,328.661,119.209,263.5,119.209,263.5z M497,496.484
	c0,0.285-0.231,0.516-0.516,0.516H263.5V263.5h48.613c4.142,0,7.5-3.358,7.5-7.5s-3.358-7.5-7.5-7.5H199.887
	c-4.142,0-7.5,3.358-7.5,7.5s3.358,7.5,7.5,7.5H248.5V497H15.516c-0.285,0-0.516-0.231-0.516-0.516V264.016
	c0-0.285,0.231-0.516,0.516-0.516h88.693v72.661c0,4.142,3.358,7.5,7.5,7.5h40.081c4.142,0,7.5-3.358,7.5-7.5V263.5h8.528
	c4.142,0,7.5-3.358,7.5-7.5s-3.358-7.5-7.5-7.5H139.25V15.516c0-0.285,0.231-0.516,0.516-0.516h88.693v72.661
	c0,4.142,3.358,7.5,7.5,7.5h40.081c4.142,0,7.5-3.358,7.5-7.5V15h88.693c0.285,0,0.516,0.231,0.516,0.516V248.5H344.18
	c-4.142,0-7.5,3.358-7.5,7.5s3.358,7.5,7.5,7.5h8.528v72.661c0,4.142,3.358,7.5,7.5,7.5h40.081c4.142,0,7.5-3.358,7.5-7.5V263.5
	h88.693c0.285,0,0.516,0.231,0.516,0.516v232.468H497z"/>
<path d="M336.161,448.903H296.08c-4.142,0-7.5,3.358-7.5,7.5s3.358,7.5,7.5,7.5h40.081c4.142,0,7.5-3.358,7.5-7.5
	S340.303,448.903,336.161,448.903z"/>
<path d="M360.209,416.839H296.08c-4.142,0-7.5,3.358-7.5,7.5s3.358,7.5,7.5,7.5h64.129c4.142,0,7.5-3.358,7.5-7.5
	S364.352,416.839,360.209,416.839z"/>
<path d="M211.911,200.403H171.83c-4.142,0-7.5,3.358-7.5,7.5s3.358,7.5,7.5,7.5h40.081c4.142,0,7.5-3.358,7.5-7.5
	S216.053,200.403,211.911,200.403z"/>
<path d="M235.959,168.339H171.83c-4.142,0-7.5,3.358-7.5,7.5s3.358,7.5,7.5,7.5h64.129c4.142,0,7.5-3.358,7.5-7.5
	S240.102,168.339,235.959,168.339z"/>
<g>
</g>
<g>
</g>
<g>
</g>
<g>
</g>
<g>
</g>
<g>
</g>
<g>
</g>
<g>
</g>
<g>
</g>
<g>
</g>
<g>
</g>
<g>
</g>
<g>
</g>
<g>
</g>
<g>
</g>
</svg>
