<?xml version="1.0" encoding="iso-8859-1"?>
<!-- Generator: Adobe Illustrator 19.0.0, SVG Export Plug-In . SVG Version: 6.00 Build 0)  -->
<svg version="1.1" id="Layer_1" xmlns="http://www.w3.org/2000/svg" xmlns:xlink="http://www.w3.org/1999/xlink" x="0px" y="0px"
	 viewBox="0 0 512 512" style="enable-background:new 0 0 512 512;" xml:space="preserve">
<circle style="fill:#43D3E8;" cx="256" cy="258.074" r="181.317"/>
<g>
	<polygon style="fill:#242D3C;" points="456.858,27.292 486.802,57.239 497.759,16.328 	"/>
	
		<rect x="340.878" y="71.232" transform="matrix(-0.7071 -0.7071 0.7071 -0.7071 483.7475 526.6678)" style="fill:#242D3C;" width="20.144" height="183.829"/>
	
		<rect x="146.227" y="259.106" transform="matrix(-0.7071 -0.7071 0.7071 -0.7071 13.8399 721.2673)" style="fill:#242D3C;" width="20.144" height="197.323"/>
	<polygon style="fill:#242D3C;" points="485.583,100.751 466.12,95.542 483.512,30.572 418.555,47.98 413.345,28.518 512,2.084 	"/>
	<path style="fill:#242D3C;" d="M116.5,467.551c-2.578,0-5.151-0.98-7.119-2.947l-59.919-59.881
		c-1.889-1.889-2.952-4.452-2.952-7.122c0-2.673,1.062-5.235,2.952-7.122L189,250.947l14.244,14.244L70.828,397.604l45.668,45.635
		L248.87,310.863l14.244,14.241L123.62,464.599C121.659,466.565,119.078,467.551,116.5,467.551z"/>
	<path style="fill:#242D3C;" d="M323.034,265.188l-14.241-14.244L451.51,108.216h-35.548c-5.565,0-10.076-4.508-10.076-10.074
		V62.587L263.153,205.312l-14.241-14.244L408.837,31.147c2.88-2.885,7.214-3.745,10.97-2.184c3.771,1.556,6.226,5.228,6.226,9.306
		v49.8h49.8c4.068,0,7.741,2.455,9.3,6.221s0.701,8.095-2.181,10.975L323.034,265.188z"/>
	<path style="fill:#242D3C;" d="M86.541,497.505c-2.578,0-5.158-0.983-7.122-2.949L19.533,434.67
		c-3.935-3.932-3.935-10.309-0.005-14.244l29.942-29.947c3.779-3.779,10.47-3.784,14.246,0l59.894,59.894
		c1.889,1.889,2.952,4.447,2.952,7.122c0,2.673-1.062,5.235-2.952,7.122L93.66,494.554
		C91.694,496.522,89.119,497.505,86.541,497.505z M40.901,427.548l45.645,45.64l15.7-15.695l-45.65-45.65L40.901,427.548z"/>
	<path style="fill:#242D3C;" d="M56.599,509.916c-14.016-0.003-27.174-5.46-37.074-15.36c-9.897-9.892-15.35-23.055-15.355-37.061
		c0.003-14.013,5.46-27.172,15.363-37.071l14.241,14.249c-6.095,6.093-9.452,14.198-9.457,22.822
		c0.005,8.617,3.361,16.722,9.452,22.815c6.098,6.1,14.203,9.459,22.83,9.459c8.622,0,16.722-3.361,22.815-9.457l14.252,14.239
		C83.773,504.456,70.612,509.914,56.599,509.916z"/>
	<polygon style="fill:#242D3C;" points="25.208,57.231 55.155,27.284 14.244,16.328 	"/>
	
		<rect x="27.851" y="252.767" transform="matrix(-0.7071 -0.7071 0.7071 -0.7071 259.3071 633.0872)" style="fill:#242D3C;" width="465.839" height="20.144"/>
	<polygon style="fill:#242D3C;" points="26.435,100.739 0,2.084 98.668,28.508 93.458,47.969 28.488,30.572 45.896,95.529 	"/>
	<path style="fill:#242D3C;" d="M395.512,467.566c-2.573,0-5.153-0.986-7.119-2.952L29.043,105.257
		c-2.883-2.88-3.743-7.212-2.184-10.98c1.556-3.761,5.233-6.216,9.306-6.216h49.823V38.239c0-4.076,2.452-7.747,6.221-9.306
		c3.758-1.562,8.09-0.701,10.975,2.184l359.35,359.36c1.887,1.887,2.949,4.449,2.949,7.122c0,2.67-1.062,5.233-2.949,7.122
		l-59.896,59.891C400.668,466.58,398.095,467.566,395.512,467.566z M60.488,108.209l335.025,335.035l45.652-45.642L106.135,62.556
		v35.579c0,5.563-4.508,10.074-10.074,10.074H60.488z"/>
	<path style="fill:#242D3C;" d="M425.464,497.51c-2.58,0-5.156-0.986-7.122-2.947l-29.949-29.944
		c-1.889-1.892-2.952-4.454-2.952-7.124c0-2.673,1.062-5.235,2.952-7.122l59.894-59.894c1.889-1.889,4.454-2.952,7.122-2.952l0,0
		c2.675,0,5.233,1.062,7.122,2.952l29.934,29.947c3.935,3.935,3.935,10.312,0,14.244l-59.881,59.889
		C430.62,496.525,428.04,497.51,425.464,497.51z M409.759,457.492l15.708,15.695l45.637-45.645l-15.693-15.7L409.759,457.492z"/>
	<path style="fill:#242D3C;" d="M455.416,509.916c-14.024-0.003-27.182-5.46-37.082-15.36l14.252-14.239
		c6.09,6.093,14.198,9.452,22.83,9.452c8.617,0,16.714-3.361,22.807-9.452c6.098-6.1,9.457-14.205,9.457-22.825
		c0-8.622-3.361-16.727-9.457-22.82l14.241-14.249c9.9,9.889,15.363,23.058,15.363,37.069c0,14.011-5.463,27.169-15.363,37.069
		C482.583,504.456,469.417,509.914,455.416,509.916z"/>
</g>
<g>
</g>
<g>
</g>
<g>
</g>
<g>
</g>
<g>
</g>
<g>
</g>
<g>
</g>
<g>
</g>
<g>
</g>
<g>
</g>
<g>
</g>
<g>
</g>
<g>
</g>
<g>
</g>
<g>
</g>
</svg>
