<?xml version="1.0" encoding="iso-8859-1"?>
<!-- Generator: Adobe Illustrator 19.0.0, SVG Export Plug-In . SVG Version: 6.00 Build 0)  -->
<svg version="1.1" id="Capa_1" xmlns="http://www.w3.org/2000/svg" xmlns:xlink="http://www.w3.org/1999/xlink" x="0px" y="0px"
	 viewBox="0 0 512 512" style="enable-background:new 0 0 512 512;" xml:space="preserve">
<path style="fill:#FFE17D;" d="M424.339,432.355H135.757c-4.427,0-8.016-3.589-8.016-8.016V135.758c0-4.427,3.589-8.016,8.016-8.016
	h288.581c4.427,0,8.016,3.589,8.016,8.016v288.581C432.355,428.766,428.766,432.355,424.339,432.355z"/>
<path style="fill:#FFD164;" d="M328.145,408.306c-97.398,0-176.355-78.957-176.355-176.355v-104.21h-16.032
	c-4.427,0-8.016,3.589-8.016,8.016v288.581c0,4.427,3.589,8.016,8.016,8.016h288.581c4.427,0,8.016-3.589,8.016-8.016v-16.032
	H328.145z"/>
<path style="fill:#C0BCC1;" d="M475.754,461.1l-14.658-14.655c-9.085-9.089-21.164-14.091-34.006-14.091H143.773v32.065H427.09
	c4.216,0,8.349,1.714,11.335,4.697l14.658,14.654c3.131,3.131,7.233,4.697,11.335,4.697s8.208-1.566,11.339-4.697
	C482.017,477.508,482.017,467.355,475.754,461.1z"/>
<circle style="fill:#6F6571;" cx="95.679" cy="448.39" r="56.11"/>
<path style="fill:#FF8087;" d="M247.982,127.742v88.177c0,4.427,3.589,8.016,8.016,8.016h48.097c4.427,0,8.016-3.589,8.016-8.016
	v-88.177C312.112,127.742,247.982,127.742,247.982,127.742z"/>
<circle style="fill:#AEA8AF;" cx="95.679" cy="448.39" r="24.05"/>
<path style="fill:#867E88;" d="M71.628,70.254L36.243,34.869c-6.261-6.261-6.261-16.412,0-22.673l0,0
	c6.261-6.261,16.412-6.261,22.673,0l35.385,35.385c6.261,6.261,6.261,16.412,0,22.673l0,0C88.04,76.515,77.889,76.515,71.628,70.254
	z"/>
<path d="M481.057,455.796L466.4,441.144c-7.455-7.458-16.66-12.522-26.684-14.841c0.082-0.645,0.138-1.297,0.138-1.964V135.758
	c0-8.556-6.96-15.517-15.516-15.517h-288.58c-8.556,0-15.516,6.961-15.516,15.517v232.467c0,4.142,3.358,7.5,7.5,7.5
	c4.142,0,7.5-3.358,7.5-7.5V135.758c0-0.285,0.231-0.517,0.516-0.517h104.726v88.694c0,4.142,3.358,7.5,7.5,7.5h64.129
	c4.142,0,7.5-3.358,7.5-7.5v-88.694h104.726c0.285,0,0.516,0.232,0.516,0.517v288.581c0,0.285-0.231,0.516-0.516,0.516H183.854
	c-4.142,0-7.5,3.358-7.5,7.5s3.358,7.5,7.5,7.5H427.09c10.842,0,21.035,4.224,28.703,11.895l14.661,14.657
	c1.61,1.608,2.497,3.749,2.498,6.027c0,2.28-0.887,4.423-2.497,6.034c-1.613,1.612-3.757,2.5-6.037,2.5
	c-2.277,0-4.419-0.888-6.032-2.501l-14.662-14.657c-4.384-4.379-10.448-6.89-16.635-6.89H158.701
	c0.376-2.793,0.589-5.638,0.589-8.532c0-32.537-24.56-59.431-56.113-63.156V66.924c1.271-2.922,1.944-6.1,1.944-9.382
	c0-6.286-2.448-12.195-6.892-16.64l-34.01-34.01C59.774,2.448,53.866,0,47.579,0c-6.286,0-12.195,2.448-16.64,6.892
	s-6.892,10.354-6.892,16.64s2.447,12.196,6.892,16.64l34.009,34.009c4.587,4.588,10.614,6.881,16.64,6.881
	c2.22,0,4.439-0.317,6.587-0.939v305.108c-31.552,3.725-56.113,30.618-56.113,63.156c0,35.076,28.537,63.613,63.613,63.613
	c26.765,0,49.705-16.623,59.082-40.081H427.09c2.242,0,4.442,0.913,6.032,2.501l14.659,14.654
	c4.446,4.445,10.354,6.893,16.638,6.893c6.286,0,12.196-2.448,16.645-6.895c4.443-4.446,6.889-10.355,6.889-16.641
	C487.951,466.144,485.501,460.235,481.057,455.796z M304.613,216.436h-49.129v-81.194h49.129V216.436z M75.555,63.575l-34.009-34.01
	c-3.327-3.327-3.327-8.74,0-12.067C43.158,15.887,45.3,15,47.579,15c2.279,0,4.422,0.887,6.033,2.499l34.01,34.01
	c3.327,3.327,3.327,8.74,0,12.066C84.295,66.902,78.882,66.902,75.555,63.575z M95.676,497c-26.805,0-48.613-21.808-48.613-48.613
	s21.808-48.613,48.613-48.613s48.613,21.808,48.613,48.613S122.481,497,95.676,497z"/>
<path d="M95.676,416.839c-17.396,0-31.548,14.152-31.548,31.548s14.152,31.548,31.548,31.548s31.548-14.152,31.548-31.548
	S113.072,416.839,95.676,416.839z M95.676,464.936c-9.125,0-16.548-7.423-16.548-16.548s7.423-16.548,16.548-16.548
	s16.548,7.423,16.548,16.548S104.801,464.936,95.676,464.936z"/>
<path d="M183.854,375.726h64.129c4.142,0,7.5-3.358,7.5-7.5s-3.358-7.5-7.5-7.5h-64.129c-4.142,0-7.5,3.358-7.5,7.5
	S179.712,375.726,183.854,375.726z"/>
<path d="M183.854,343.661h96.194c4.142,0,7.5-3.358,7.5-7.5s-3.358-7.5-7.5-7.5h-96.194c-4.142,0-7.5,3.358-7.5,7.5
	S179.712,343.661,183.854,343.661z"/>
<g>
</g>
<g>
</g>
<g>
</g>
<g>
</g>
<g>
</g>
<g>
</g>
<g>
</g>
<g>
</g>
<g>
</g>
<g>
</g>
<g>
</g>
<g>
</g>
<g>
</g>
<g>
</g>
<g>
</g>
</svg>
