<?xml version="1.0" encoding="utf-8"?>
<!-- Generator: Adobe Illustrator 16.0.0, SVG Export Plug-In . SVG Version: 6.00 Build 0)  -->
<!DOCTYPE svg PUBLIC "-//W3C//DTD SVG 1.1//EN" "http://www.w3.org/Graphics/SVG/1.1/DTD/svg11.dtd">
<svg version="1.1" id="Layer_1" xmlns="http://www.w3.org/2000/svg" xmlns:xlink="http://www.w3.org/1999/xlink" x="0px" y="0px"
	 width="1417.32px" height="1417.32px" viewBox="0 0 1417.32 1417.32" enable-background="new 0 0 1417.32 1417.32"
	 xml:space="preserve">
<path fill="#2D2E2D" d="M1398.34,708.342c0,380.987-308.839,689.825-689.837,689.825c-380.981,0-689.837-308.838-689.837-689.825
	c0-381.007,308.855-689.834,689.837-689.834C1089.501,18.508,1398.34,327.335,1398.34,708.342"/>
<path fill="#878787" d="M848.492,397.936c47.354-15.031,97.981,11.165,113.012,58.541l108.908,342.683l53.639,168.747
	c15.059,47.358-11.154,97.981-58.512,113.012c-47.393,15.064-97.982-11.131-113.035-58.513L898.68,853.024L789.969,510.982
	C774.928,463.606,801.123,413,848.492,397.936"/>
<path fill="#878787" d="M523.671,397.936c47.359-15.031,97.976,11.165,113.023,58.541l108.892,342.683l53.633,168.747
	c15.064,47.358-11.131,97.981-58.518,113.012c-47.342,15.064-97.954-11.131-113.007-58.513l-53.854-169.381L465.153,510.982
	C450.106,463.606,476.296,413,523.671,397.936"/>
<path fill="#878787" d="M199.626,397.936c47.375-15.053,97.987,11.165,113.041,58.541l108.897,342.66l53.644,168.77
	c15.042,47.358-11.148,97.981-58.519,113.012c-47.369,15.064-97.981-11.131-113.034-58.513l-53.831-169.404L141.131,510.982
	C126.067,463.606,152.274,413,199.626,397.936"/>
<path fill="#FFFFFF" d="M579.101,397.936c-47.381-15.053-97.976,11.165-113.041,58.541l-108.891,342.66l-53.649,168.77
	c-15.042,47.358,11.148,97.981,58.523,113.012c47.37,15.064,97.958-11.131,113.028-58.513l53.825-169.404l108.705-342.019
	C652.654,463.606,626.441,413,579.101,397.936"/>
<path fill="#FFFFFF" d="M903.128,397.936c-47.381-15.031-97.981,11.165-113.034,58.541L681.208,799.159l-53.627,168.747
	c-15.07,47.358,11.131,97.981,58.501,113.012c47.342,15.064,97.97-11.131,113.012-58.513l53.854-169.381l108.682-342.042
	C976.682,463.606,950.486,413,903.128,397.936"/>
<path fill="#FFFFFF" d="M1227.541,397.936c-47.358-15.031-97.981,11.165-113.034,58.541l-108.892,342.683l-53.633,168.747
	c-15.053,47.358,11.131,97.981,58.507,113.012c47.387,15.064,97.976-11.131,113.04-58.513l53.831-169.381l108.692-342.042
	C1301.129,463.606,1274.899,413,1227.541,397.936"/>
</svg>
